# xmcd
#
# Track frame offsets: 
#        150
#        9935
#        21897
#        30150
#        39912
#        51712
#        67792
#        77220
#        86482
#        95045
#        107755
#        119302
#        126852
#
# Disc length: 1771 seconds
#
# Revision: 0
# Processed by: cddbd v1.5PL3 Copyright (c) Steve Scherf et al.
# Submitted via: ExactAudioCopy v0.95a5
#
DISCID=9b06e90d
DTITLE=The Village Singers - There's A Great Day Coming
DYEAR=1999
DGENRE=Bluegrass
TTITLE0=When I Lift Up My Head
TTITLE1=Someone To Care
TTITLE2=When I Wake Up
TTITLE3=Church In The Wildwood
TTITLE4=Far Side Banks Of Jorden
TTITLE5=On My Father's Side
TTITLE6=I'll Live In  Glory
TTITLE7=Come Unto Me
TTITLE8=Neither Do I Condemn
TTITLE9=A Heart That Will Never Break
TTITLE10=That's Why I Love To Call His Name
TTITLE11=There's A Great Day Coming
TTITLE12=In The Garden
EXTD=
EXTT0=
EXTT1=
EXTT2=
EXTT3=
EXTT4=
EXTT5=
EXTT6=
EXTT7=
EXTT8=
EXTT9=
EXTT10=
EXTT11=
EXTT12=
PLAYORDER=
